<?xml version="1.0" standalone="no"?>
<!DOCTYPE svg PUBLIC "-//W3C//DTD SVG 20010904//EN"
 "http://www.w3.org/TR/2001/REC-SVG-20010904/DTD/svg10.dtd">
<svg version="1.0" xmlns="http://www.w3.org/2000/svg"
 width="600.000000pt" height="400.000000pt" viewBox="0 0 600.000000 400.000000"
 preserveAspectRatio="xMidYMid meet">
<metadata>
Created by potrace 1.16, written by Peter Selinger 2001-2019
</metadata>
<g transform="translate(0.000000,400.000000) scale(0.100000,-0.100000)"
fill="#000000" stroke="none">
<path d="M0 2000 l0 -2000 2594 0 c2058 0 2595 3 2599 13 4 9 6 9 6 0 1 -9 96
-12 401 -13 l400 0 0 375 c0 271 -3 375 -11 375 -9 0 -9 4 0 13 8 10 11 451
11 1625 l0 1612 -371 0 c-352 0 -371 -1 -358 -17 13 -17 12 -17 -6 -2 -26 22
-235 28 -235 7 0 -10 -3 -9 -9 1 -8 12 -12 12 -25 2 -11 -9 -16 -10 -16 -2 0
17 -98 7 -118 -12 -9 -10 -11 -17 -5 -17 7 0 15 5 18 10 3 6 11 10 17 10 6 0
5 -7 -3 -17 -13 -15 -12 -15 18 0 21 11 39 14 53 9 21 -8 21 -9 5 -25 -26 -27
-58 -41 -83 -38 -17 2 -22 -3 -22 -18 0 -18 5 -20 30 -16 20 4 30 1 30 -7 0
-9 3 -9 10 2 5 8 25 15 44 16 33 2 48 -12 51 -48 0 -3 3 -10 7 -14 15 -14 8
-24 -17 -24 -28 0 -46 -27 -26 -39 9 -6 9 -15 1 -35 -5 -15 -14 -24 -20 -21
-5 3 -10 0 -10 -8 0 -8 -6 -14 -12 -14 -33 4 -134 -17 -155 -30 -15 -10 -35
-14 -58 -10 -26 4 -34 3 -28 -6 4 -7 0 -6 -10 2 -13 11 -17 11 -17 1 0 -8 -3
-10 -7 -7 -3 4 -12 2 -19 -4 -15 -12 -44 -5 -44 10 0 5 14 12 30 16 20 4 28
11 23 18 -4 7 -7 23 -8 37 0 15 -7 26 -17 28 -10 2 -18 -1 -18 -7 0 -6 7 -8
16 -4 14 5 14 3 3 -15 -7 -11 -18 -18 -24 -16 -5 3 -2 -1 8 -9 16 -14 16 -15
-7 -19 -14 -3 -24 -2 -22 1 3 4 -13 7 -34 7 -31 1 -40 -3 -49 -22 -6 -13 -16
-24 -22 -24 -8 0 -6 7 4 18 22 24 21 31 -3 25 -11 -3 -20 0 -20 5 0 15 31 31
47 25 7 -3 16 3 19 12 5 13 9 14 15 4 8 -14 8 -14 24 37 3 8 9 13 14 9 6 -3 6
-17 -1 -36 -6 -16 -8 -33 -5 -36 3 -3 9 8 13 23 4 16 10 31 13 34 4 3 12 18
20 35 l13 30 -21 -19 c-21 -19 -22 -19 -37 0 -8 10 -13 13 -9 6 6 -11 -50 -72
-67 -72 -5 0 -6 13 -3 29 4 26 3 29 -18 23 -20 -5 -21 -4 -8 12 13 15 13 19 0
27 -12 7 -11 9 2 9 9 0 19 7 23 15 3 8 12 15 20 15 10 0 13 6 9 16 -5 13 -9
12 -29 -7 -13 -12 -27 -19 -31 -15 -4 4 8 21 27 38 22 19 30 32 22 35 -6 3
-10 9 -6 14 3 5 0 9 -6 9 -17 0 -37 24 -32 38 3 10 -9 12 -49 10 -45 -2 -54
-6 -51 -20 2 -10 -2 -18 -8 -18 -9 0 -14 14 -11 33 0 4 -10 7 -24 7 -23 0 -24
-2 -15 -20 6 -11 17 -20 24 -20 8 0 19 -6 25 -13 6 -8 23 -12 42 -9 23 3 30 1
24 -7 -4 -7 -13 -10 -20 -7 -7 2 -16 -1 -19 -9 -3 -8 -15 -19 -27 -26 -19 -10
-21 -9 -16 5 4 9 2 16 -2 16 -5 0 -11 -6 -14 -14 -7 -17 22 -51 43 -51 9 0 14
-8 13 -19 -1 -17 25 -55 34 -48 2 1 6 2 10 2 4 0 -1 -6 -11 -13 -16 -12 -16
-14 -2 -26 23 -19 20 -28 -10 -34 -20 -3 -24 -1 -19 12 4 11 3 13 -5 5 -7 -7
-7 -20 1 -42 9 -26 15 -31 30 -27 11 4 19 2 19 -4 0 -6 -7 -11 -16 -11 -8 0
-13 -4 -10 -9 5 -8 -35 -31 -53 -31 -5 0 -11 9 -14 20 -4 17 -1 19 21 14 24
-5 25 -4 8 7 -15 9 -16 13 -5 21 11 8 11 9 -2 5 -9 -3 -26 1 -38 9 -12 8 -26
12 -32 9 -5 -4 -19 1 -30 11 -10 9 -19 13 -19 8 0 -5 9 -15 20 -22 21 -13 27
-42 9 -42 -6 0 -13 9 -16 20 -5 18 -8 19 -27 7 -11 -7 -26 -13 -31 -12 -19 0
-66 43 -63 57 2 7 -5 13 -15 13 -10 0 -22 6 -26 14 -7 10 -13 10 -29 2 -27
-15 -32 -14 -32 4 0 8 -5 15 -11 15 -5 0 -8 4 -5 9 3 5 -3 11 -14 14 -11 3
-23 1 -26 -4 -3 -5 -9 -7 -13 -5 -4 3 -13 1 -21 -4 -8 -5 -22 -4 -32 1 -14 7
-20 6 -24 -6 -3 -8 -9 -13 -13 -11 -4 3 -13 0 -21 -6 -12 -8 -12 -9 3 -4 22 7
22 -3 0 -20 -10 -7 -13 -14 -7 -14 5 0 20 9 31 19 14 14 24 16 31 9 8 -8 16
-6 27 6 9 9 30 16 46 16 36 0 50 -27 24 -46 -18 -13 -17 -15 6 -35 13 -11 25
-16 27 -10 2 6 22 11 45 10 23 0 36 -3 30 -6 -9 -3 -10 -10 -3 -24 11 -20 -3
-28 -15 -9 -12 19 -22 10 -22 -20 0 -19 3 -26 8 -18 4 7 11 9 14 6 10 -10 -4
-28 -21 -28 -8 0 -14 9 -14 21 0 11 -4 17 -10 14 -5 -3 -19 -8 -31 -10 -15 -3
-19 0 -15 10 3 9 0 12 -10 8 -16 -6 -18 1 -4 26 8 15 6 17 -15 13 -14 -2 -25
-11 -25 -19 0 -8 -4 -12 -9 -8 -5 3 -12 1 -16 -4 -3 -6 -12 -8 -20 -4 -10 3
-15 -1 -15 -13 0 -17 -1 -17 -17 -1 -15 15 -15 18 0 35 15 17 15 18 -8 17 -14
-1 -28 -5 -32 -8 -14 -15 -23 -6 -13 14 10 17 8 21 -9 26 -23 6 -27 18 -10 29
8 5 8 9 -1 14 -16 10 -3 70 16 70 20 0 17 18 -3 23 -14 3 -11 7 12 17 17 7 25
14 17 17 -7 3 -19 -1 -28 -7 -8 -7 -17 -10 -21 -6 -7 7 26 46 39 46 5 0 16 7
24 15 16 16 5 21 -11 6 -6 -5 -20 -12 -32 -16 -17 -5 -23 -2 -23 10 0 10 5 13
12 9 7 -5 8 -3 4 5 -5 7 0 18 10 26 25 19 64 19 64 0 0 -16 16 -20 24 -6 10
15 -20 32 -55 31 -58 0 -69 -3 -69 -16 0 -6 -12 -14 -27 -17 -16 -3 -39 -9
-53 -13 -23 -7 -24 -6 -11 10 18 21 11 28 -12 11 -15 -11 -16 -17 -6 -39 7
-14 16 -26 22 -26 5 0 7 -6 4 -14 -6 -15 18 -30 33 -21 4 3 13 -2 20 -10 7 -8
17 -12 23 -8 6 3 7 1 3 -5 -4 -7 -15 -8 -29 -3 -12 4 -28 6 -34 4 -7 -3 -13 1
-13 7 0 7 -8 9 -20 5 -16 -5 -19 -3 -13 11 5 14 3 15 -14 6 -11 -6 -23 -9 -26
-5 -4 3 -13 0 -22 -7 -13 -10 -15 -9 -15 9 0 14 9 25 25 31 33 12 32 24 -1 17
-21 -4 -25 -1 -21 14 3 11 1 19 -4 19 -5 0 -9 9 -9 20 0 12 7 20 16 20 10 0
14 -6 10 -15 -8 -22 7 -18 21 4 10 17 10 20 -5 20 -9 0 -29 3 -44 7 -39 9 -64
-2 -48 -21 7 -8 10 -25 7 -37 -3 -11 -2 -30 4 -40 16 -30 3 -21 -21 15 l-22
32 7 -28 c6 -28 5 -28 -17 -13 -30 21 -44 20 -27 -1 12 -15 12 -16 -3 -10 -10
3 -18 2 -18 -3 0 -6 17 -9 38 -8 47 1 62 -7 62 -33 0 -13 -4 -18 -12 -13 -7 5
-8 3 -3 -5 4 -8 -1 -18 -14 -27 -28 -20 -27 -32 3 -27 24 5 24 4 25 -72 0 -43
3 -80 5 -83 3 -2 0 -14 -6 -25 -9 -17 -12 -18 -22 -6 -6 8 -20 21 -31 29 -12
10 -9 1 10 -25 17 -22 34 -43 39 -46 5 -4 6 -15 2 -24 -6 -16 -8 -16 -24 -3
-9 9 -30 18 -45 22 -16 4 -25 11 -21 17 4 7 -1 7 -15 -1 -23 -12 -20 -33 3
-24 19 7 37 -18 26 -36 -8 -13 -10 -12 -10 3 0 23 -9 21 -32 -8 -16 -20 -28
-25 -65 -25 -37 0 -44 3 -39 16 3 8 1 24 -5 36 -10 19 -11 19 -24 1 -8 -10
-15 -13 -15 -6 0 6 5 15 10 18 6 4 7 11 4 17 -4 6 2 6 15 -1 14 -8 21 -8 21
-1 0 5 -4 10 -10 10 -5 0 -10 5 -10 10 0 6 12 8 27 5 24 -5 25 -4 10 5 -9 6
-15 16 -11 21 4 6 14 3 27 -8 20 -17 20 -17 14 1 -4 10 -2 25 4 32 13 15 -1
19 -16 5 -18 -17 -60 -17 -61 -1 -1 8 -2 21 -3 29 -1 11 -4 11 -17 0 -14 -11
-15 -10 -12 7 2 14 -4 20 -24 22 -35 4 -35 18 -3 48 23 22 26 54 4 54 -5 0
-14 11 -19 25 -5 14 -14 25 -20 25 -5 0 -10 5 -10 11 0 6 6 9 13 6 26 -10 40
8 27 33 -8 15 -8 20 -1 16 6 -4 11 -3 11 3 0 14 -21 25 -29 14 -9 -13 -74 -10
-78 5 -5 12 11 16 57 14 22 -1 22 0 6 7 -14 5 -16 10 -8 15 24 15 -13 34 -64
34 -55 -1 -72 -7 -53 -19 7 -4 10 -11 6 -16 -4 -4 -16 -2 -26 4 -24 15 -69 5
-82 -20 -9 -16 -9 -19 4 -14 23 9 38 -34 21 -58 -8 -10 -14 -24 -14 -29 0 -6
5 -4 10 4 7 12 12 12 22 2 6 -6 8 -12 3 -12 -5 0 0 -6 10 -14 17 -12 18 -16 5
-32 -14 -16 -13 -17 3 -11 11 4 17 1 17 -9 0 -13 -8 -11 -45 9 -25 14 -47 22
-49 18 -7 -11 7 -28 31 -35 13 -4 22 -10 20 -14 -1 -4 10 -20 26 -35 27 -28
35 -47 18 -47 -5 0 -11 7 -15 15 -3 8 -15 15 -26 15 -11 0 -20 7 -20 15 0 8
-7 15 -15 15 -7 0 -19 8 -24 18 -9 14 -12 15 -20 3 -11 -17 -3 -41 18 -58 9
-7 12 -13 7 -13 -4 0 2 -9 15 -21 17 -14 19 -19 7 -15 -10 3 -20 1 -23 -5 -4
-5 -13 -3 -21 6 -23 22 -37 19 -24 -6 9 -17 17 -19 43 -13 45 9 49 13 45 39
-5 26 19 29 39 5 18 -22 16 -29 -6 -23 -11 3 -24 -3 -32 -14 -8 -11 -22 -22
-31 -26 -17 -6 -26 -29 -10 -25 10 3 52 -21 52 -31 0 -10 -51 -35 -65 -32 -5
1 0 -7 12 -18 26 -24 41 -28 23 -6 -11 13 -8 15 15 15 19 0 26 -4 22 -14 -3
-8 1 -17 10 -20 11 -5 14 -2 9 10 -7 17 12 48 32 52 9 1 8 -5 -4 -23 -12 -18
-13 -25 -4 -25 10 0 9 -5 -2 -17 -9 -10 -19 -28 -22 -39 -7 -23 -42 -38 -52
-23 -3 5 0 9 5 9 6 0 11 4 11 9 0 11 -39 3 -58 -12 -11 -8 -12 -5 -6 18 5 20
4 26 -5 21 -7 -5 -11 0 -11 13 0 11 -4 23 -10 26 -6 3 -7 -1 -4 -9 8 -20 -5
-20 -34 0 -21 14 -22 14 -22 -5 0 -12 5 -21 11 -21 6 0 9 -7 5 -15 -7 -18 10
-20 18 -2 2 6 4 3 3 -8 -2 -11 -6 -25 -10 -32 -9 -14 17 -59 42 -72 14 -8 12
-13 -10 -33 -29 -25 -47 -68 -30 -68 6 0 11 4 11 8 0 10 41 9 58 -1 7 -5 10
-12 8 -16 -3 -4 5 -13 16 -20 19 -12 20 -11 15 9 -4 17 -3 19 9 9 12 -9 14 -6
14 20 0 17 5 31 10 31 6 0 10 10 10 23 1 20 2 20 11 4 8 -13 5 -28 -10 -61
-24 -50 -25 -56 -8 -56 17 0 47 -36 47 -58 0 -9 -4 -24 -10 -32 -8 -12 -10
-12 -15 2 -4 9 -16 18 -27 21 -11 3 -17 10 -13 16 3 7 0 8 -9 5 -11 -4 -16 0
-16 10 0 9 5 16 10 16 6 0 10 4 10 8 0 5 -14 7 -31 4 -21 -3 -34 1 -44 14 -13
17 -14 17 -15 2 0 -11 -6 -15 -20 -11 -11 3 -20 10 -20 15 0 5 -5 6 -10 3 -6
-4 -4 -12 5 -21 20 -20 19 -30 -2 -39 -16 -6 -15 -8 5 -16 12 -4 22 -13 22
-19 0 -14 -17 -13 -23 3 -3 6 -6 7 -6 1 -1 -6 7 -19 17 -29 14 -16 16 -24 8
-42 -11 -22 -36 -32 -36 -14 0 5 -9 7 -20 4 -12 -3 -20 -14 -20 -26 0 -16 3
-18 12 -9 16 16 25 15 32 -4 3 -8 2 -13 -3 -10 -10 6 -25 -24 -16 -32 2 -3 10
0 17 5 24 18 51 24 45 10 -3 -7 4 -19 14 -25 25 -16 24 -38 -2 -45 -11 -3 -23
-15 -26 -26 -4 -17 -8 -19 -19 -10 -11 9 -18 8 -29 -1 -8 -6 -19 -9 -24 -5 -7
3 -8 0 -5 -9 3 -9 1 -16 -5 -16 -6 0 -11 -10 -11 -22 l1 -23 21 25 c12 14 19
18 15 8 -4 -12 -1 -16 11 -16 9 1 29 -2 45 -5 16 -5 27 -3 27 3 0 5 -3 9 -7 9
-20 -3 -34 2 -28 10 3 6 17 6 36 -1 l30 -10 -22 -24 c-12 -13 -17 -24 -11 -24
7 0 12 4 12 10 0 12 69 3 86 -11 9 -7 11 -17 5 -28 -5 -9 -6 -22 -4 -29 3 -7
-1 -10 -10 -6 -9 3 -17 -2 -21 -13 -3 -10 -4 -4 -2 14 1 18 -1 30 -5 27 -4 -2
-10 0 -14 5 -3 5 3 14 12 20 14 8 11 9 -16 6 -35 -4 -56 -15 -28 -15 9 0 21
-9 27 -19 14 -27 13 -36 -4 -22 -11 9 -18 8 -30 -4 -9 -9 -16 -12 -16 -6 0 6
-9 11 -20 11 -11 0 -20 -4 -20 -10 0 -5 -4 -10 -10 -10 -15 0 -12 16 5 34 18
17 20 30 4 20 -6 -3 -15 0 -20 7 -7 11 -11 10 -22 -5 -14 -19 -15 -19 -46 4
l-33 23 -21 -24 c-13 -13 -14 -17 -4 -10 12 10 17 10 17 2 0 -21 -30 -24 -50
-6 -16 15 -18 21 -7 33 10 13 9 14 -10 3 -27 -14 -29 -27 -6 -40 14 -7 15 -12
4 -24 -10 -13 -9 -15 10 -10 13 4 20 2 16 -3 -3 -6 8 -8 27 -6 30 3 36 0 50
-29 9 -17 16 -38 16 -46 0 -7 5 -13 10 -13 6 0 10 -5 10 -11 0 -8 -12 -10 -35
-6 -19 3 -37 2 -40 -4 -3 -5 1 -6 9 -3 18 7 22 -11 6 -21 -6 -4 -7 -11 -4 -17
5 -7 2 -8 -7 -2 -8 4 -24 7 -36 6 -12 -2 -26 4 -32 15 -7 12 -10 14 -11 4 0
-11 -4 -11 -18 2 -10 10 -28 17 -40 17 -24 0 -30 25 -9 33 9 4 9 6 -1 6 -7 1
-22 -3 -32 -9 -10 -5 -26 -7 -35 -4 -14 6 -14 8 -1 23 19 21 25 57 9 53 -15
-2 -17 14 -3 23 5 3 7 12 4 19 -3 7 2 20 10 29 8 8 12 18 8 22 -4 3 1 13 11
20 23 17 5 30 -22 15 -27 -14 -29 -13 -27 15 0 14 7 25 14 25 6 0 12 5 12 10
0 6 -4 10 -10 10 -5 0 -10 10 -10 22 0 17 -3 19 -12 10 -7 -7 -19 -12 -27 -12
-13 0 -14 2 -2 9 10 7 6 11 -17 16 -43 9 -52 36 -9 28 18 -3 37 -10 43 -15 7
-5 16 -2 25 8 10 13 10 17 -1 24 -10 6 -7 14 15 34 15 14 23 26 17 26 -6 0
-14 -5 -17 -10 -4 -6 -11 -8 -16 -4 -6 4 -6 11 1 19 8 10 8 15 0 20 -6 4 -7
12 -3 18 10 15 10 41 0 45 -4 1 -15 2 -24 2 -17 -1 -17 -1 -1 -10 18 -11 14
-50 -6 -50 -8 0 -8 -2 0 -8 12 -7 17 -30 15 -71 -1 -18 -5 -22 -18 -16 -10 4
-24 8 -30 8 -7 0 -13 4 -13 9 0 5 -8 8 -18 6 -11 -2 -18 2 -18 7 1 6 20 10 44
9 23 0 42 1 42 3 0 2 -15 12 -32 24 -23 14 -27 19 -13 17 14 -2 20 2 19 15 -1
9 5 17 14 17 12 0 13 3 4 12 -8 8 -15 8 -28 -3 -9 -8 -25 -13 -34 -11 -9 1
-25 -7 -35 -18 -20 -22 -35 -26 -35 -10 0 6 7 10 15 10 18 0 20 16 3 24 -7 4
-2 4 12 2 24 -5 24 -4 6 9 -20 15 -20 15 0 16 18 0 18 1 -1 10 -17 8 -20 17
-17 46 3 25 1 34 -7 29 -7 -4 -18 -2 -26 4 -17 14 -21 35 -5 25 6 -3 10 -1 10
4 0 6 -4 11 -9 11 -5 0 -9 15 -9 33 0 31 2 33 29 29 30 -4 37 -16 18 -28 -6
-3 -15 -1 -19 6 -5 9 -9 8 -13 -3 -4 -11 4 -19 24 -26 18 -6 29 -6 29 0 0 5 5
9 11 9 5 0 7 -5 3 -12 -4 -7 -3 -8 5 -4 9 6 9 11 1 21 -8 10 -7 14 2 18 10 4
10 7 -1 15 -7 5 -10 15 -6 21 5 9 10 9 21 0 23 -19 35 3 43 74 1 4 7 7 15 7
16 0 31 18 22 27 -3 3 -17 -2 -30 -11 -15 -9 -27 -12 -31 -6 -3 6 -11 10 -16
10 -6 0 -7 -5 -3 -11 4 -7 -6 -5 -22 4 -16 8 -37 18 -46 21 -26 8 -22 25 4 18
14 -3 19 -2 14 6 -4 7 -1 12 8 12 9 0 16 -3 16 -7 0 -5 11 -9 24 -9 21 -2 24
2 23 32 -1 29 -4 34 -21 32 -15 -2 -20 2 -18 15 2 9 -2 17 -7 17 -5 0 -8 -9
-6 -20 4 -23 -14 -38 -25 -20 -6 10 -11 7 -21 -9 -8 -11 -19 -21 -26 -21 -7 0
-13 -5 -13 -12 0 -6 -8 -4 -19 6 -12 11 -17 24 -13 34 3 10 7 12 10 4 2 -7 8
-12 13 -12 10 0 0 61 -12 75 -15 16 -10 23 16 21 14 0 25 -4 25 -8 0 -5 9 -8
21 -8 14 0 19 5 16 14 -6 15 26 48 58 61 19 8 19 8 1 12 -10 3 -23 0 -29 -6
-6 -6 -15 -11 -21 -11 -5 0 0 9 12 20 26 25 28 34 5 22 -10 -5 -24 -7 -31 -5
-8 3 -10 -1 -6 -14 5 -13 4 -15 -5 -7 -16 15 -2 47 18 40 12 -5 11 -2 -3 8
-11 9 -16 22 -13 31 8 18 54 41 64 31 10 -10 -17 -25 -34 -19 -14 6 -17 -5 -5
-24 4 -7 16 -11 27 -9 14 2 21 12 23 34 2 18 6 32 10 32 4 0 8 25 8 55 1 31
-1 53 -5 50 -3 -4 -6 -10 -6 -14 0 -4 -12 -22 -28 -40 -15 -18 -27 -27 -27
-21 0 9 -5 9 -17 -1 -14 -12 -16 -12 -11 1 2 8 11 15 19 15 26 0 47 28 36 49
-5 11 -5 16 0 13 5 -3 16 10 25 29 15 32 15 34 -3 34 -11 0 -19 5 -19 11 0 5
5 7 10 4 6 -3 10 -1 10 4 0 15 -3 14 -49 -10 -32 -16 -39 -25 -35 -44 3 -18
-1 -24 -20 -29 -13 -3 -32 -9 -43 -13 -16 -6 -16 -5 -5 10 8 9 11 21 7 27 -3
5 -1 10 4 10 6 0 11 10 11 22 0 12 3 19 6 15 4 -3 13 0 20 8 8 7 19 15 26 17
6 2 9 12 5 21 -6 16 -25 18 -182 17 -96 -1 -175 -5 -175 -9 0 -4 5 -12 12 -19
9 -9 9 -12 1 -12 -7 0 -15 9 -18 20 -6 18 -15 20 -84 20 -58 0 -82 -4 -91 -15
-16 -19 -30 -19 -30 0 0 13 -12 15 -65 13 -48 -2 -65 -6 -65 -17 0 -11 -3 -11
-18 2 -21 19 -118 22 -139 5 -9 -7 -13 -7 -13 1 0 6 -9 11 -20 11 -11 0 -20
-4 -20 -10 0 -5 -9 -10 -19 -10 -11 0 -23 5 -26 10 -15 24 -25 7 -19 -32 l7
-42 -30 22 c-17 12 -36 22 -42 22 -9 0 -9 5 -1 20 11 20 8 20 -575 20 -389 0
-584 -3 -580 -10 3 -6 -6 -15 -20 -20 -28 -11 -45 -6 -45 11 0 6 5 7 12 3 7
-4 8 -3 4 4 -4 7 -31 12 -62 12 l-54 0 0 -2000z m1710 1847 c0 4 6 -1 13 -12
9 -12 16 -14 21 -7 4 6 14 8 23 5 9 -4 19 1 25 10 13 24 75 23 80 0 5 -25 -22
-44 -44 -32 -15 8 -20 5 -28 -16 -12 -30 -13 -85 -2 -69 5 8 16 5 37 -7 17
-11 26 -19 21 -19 -6 0 -1 -6 10 -14 10 -8 16 -18 11 -22 -4 -4 -14 1 -22 12
-14 18 -15 18 -29 1 -8 -11 -32 -21 -58 -23 -50 -6 -50 -6 -42 -28 4 -10 13
-15 21 -12 9 4 13 0 11 -12 -2 -11 3 -17 15 -16 9 1 17 -4 17 -12 0 -8 9 -14
19 -14 30 0 51 -11 51 -26 0 -8 5 -14 12 -14 20 0 -1 -13 -25 -15 -15 -1 -30
9 -47 34 -21 30 -25 33 -28 17 -2 -11 3 -25 11 -31 11 -8 13 -16 6 -26 -5 -8
-9 -9 -9 -4 0 6 -4 4 -9 -4 -7 -11 -14 -10 -39 5 -25 14 -33 15 -46 5 -8 -7
-19 -10 -24 -7 -14 8 -33 -19 -27 -36 4 -10 -1 -17 -16 -21 -19 -5 -21 -3 -15
24 3 17 2 28 -3 24 -5 -3 -7 4 -4 15 3 11 15 26 26 32 18 9 18 12 4 19 -13 8
-14 16 -8 48 1 2 8 -2 16 -9 13 -11 15 -8 15 19 0 33 -8 39 -29 19 -10 -11
-11 -9 -5 5 8 22 35 37 68 37 18 0 24 4 20 15 -4 10 0 15 15 15 12 0 21 1 21
3 0 1 -4 17 -9 35 -6 20 -6 30 0 27 5 -4 17 -1 26 5 15 9 15 11 2 7 -9 -3 -22
0 -28 6 -8 8 -15 6 -27 -11 -13 -19 -17 -20 -30 -8 -8 8 -14 18 -14 22 0 5 5
3 11 -3 13 -13 30 -1 41 28 5 12 1 15 -17 11 -24 -4 -40 11 -30 28 4 7 13 7
26 0 10 -6 19 -7 19 -3z m2032 -36 c2 7 13 9 26 5 20 -7 22 -13 19 -72 -1 -35
-6 -64 -11 -64 -5 0 -6 -15 -2 -32 4 -21 3 -28 -3 -19 -10 15 -31 7 -31 -12 0
-8 3 -8 9 1 7 11 9 11 14 -2 6 -16 -1 -46 -10 -46 -3 0 -12 8 -19 18 -12 16
-12 16 -11 -3 1 -14 -4 -20 -18 -20 -22 0 -44 -15 -42 -28 1 -5 -8 -13 -20
-18 -13 -4 -24 -5 -24 -1 -1 4 -3 26 -4 50 -3 40 -1 44 36 67 21 14 44 25 52
25 7 0 22 7 33 15 12 8 24 12 26 9 3 -3 8 2 12 11 5 13 2 15 -17 9 -12 -4 -30
-8 -39 -8 -10 0 -18 -4 -18 -9 0 -4 -4 -6 -9 -2 -5 3 -12 -3 -16 -14 -6 -18
-64 -48 -66 -33 0 4 -3 28 -5 55 -5 47 13 86 31 69 5 -4 5 -2 1 5 -4 7 -13 10
-21 6 -11 -4 -13 -1 -9 11 3 8 9 15 12 14 4 -1 15 2 25 7 9 4 26 5 37 2 11 -3
20 -1 20 4 0 6 8 6 19 -1 14 -7 20 -7 23 1z m1338 -133 c-10 -21 -10 -21 10 2
l22 25 -7 -45 c-3 -24 -13 -52 -21 -61 -8 -8 -21 -38 -29 -66 -8 -28 -22 -56
-30 -63 -8 -7 -15 -27 -15 -44 0 -17 -9 -45 -19 -62 -13 -22 -16 -35 -9 -42
15 -15 1 -49 -22 -55 -21 -5 -28 -37 -9 -37 6 0 3 -7 -5 -16 -9 -8 -20 -13
-25 -10 -4 3 -16 -3 -26 -14 -10 -12 -13 -20 -7 -20 7 0 12 5 12 10 0 6 9 10
20 10 12 0 32 7 45 16 16 10 25 12 25 5 0 -6 -12 -17 -27 -23 -26 -10 -26 -11
-8 -17 21 -6 33 -51 14 -51 -5 0 -7 5 -3 11 4 7 0 9 -13 5 -10 -3 -28 1 -39 9
-25 19 -34 19 -34 0 0 -8 5 -15 12 -15 8 0 7 -6 -4 -16 -16 -16 -43 -11 -33 7
3 5 -2 6 -11 2 -12 -4 -15 -3 -10 5 4 7 3 12 -1 12 -10 0 -38 -42 -35 -52 3
-12 -13 -9 -26 4 -7 7 -12 23 -12 35 0 21 -3 22 -20 13 -11 -6 -20 -15 -20
-19 0 -5 9 -11 20 -14 11 -3 20 -12 20 -21 0 -9 4 -16 9 -16 5 0 16 -3 25 -6
10 -4 16 -1 16 9 0 16 24 40 32 31 3 -3 -7 -32 -23 -65 -31 -64 -32 -117 -2
-147 20 -20 16 -40 -12 -58 -33 -22 -16 -52 26 -46 30 4 40 -12 14 -22 -8 -3
-12 -12 -9 -21 3 -8 2 -15 -4 -15 -6 0 -9 11 -8 24 3 19 -1 24 -18 23 -23 -1
-48 -21 -39 -31 4 -3 1 -6 -6 -6 -7 0 -11 6 -8 13 2 6 -3 27 -10 46 -13 30
-13 33 2 27 9 -3 27 1 41 10 30 20 32 40 2 20 -13 -7 -32 -12 -42 -11 -11 2
-32 -3 -48 -11 -15 -8 -30 -14 -33 -14 -26 1 -29 -1 -16 -9 8 -5 10 -14 6 -21
-5 -8 -4 -11 3 -6 6 3 14 2 17 -4 4 -6 -7 -15 -24 -21 -26 -9 -30 -15 -28 -42
2 -24 7 -32 22 -32 36 0 46 -14 40 -53 -8 -52 -36 -86 -73 -90 -19 -2 -32 1
-32 8 0 6 -3 9 -7 7 -5 -3 -9 5 -9 18 l-2 24 22 -26 c25 -28 46 -24 46 8 0 11
10 24 23 29 l22 9 -22 7 c-13 3 -20 10 -17 15 3 5 10 7 15 4 5 -4 9 -1 9 4 0
14 -13 14 -27 0 -8 -8 -17 -8 -31 0 -14 7 -23 8 -27 1 -3 -5 -2 -10 4 -10 17
0 1 -29 -20 -35 -14 -5 -18 -12 -14 -26 4 -10 2 -19 -4 -19 -6 0 -7 -8 -4 -17
6 -16 5 -16 -10 -4 -16 13 -16 14 0 27 17 13 17 13 1 14 -17 0 -20 6 -22 55
-1 22 43 55 74 55 10 0 22 5 26 11 5 8 -4 10 -30 7 -24 -3 -33 -1 -26 6 15 15
12 36 -5 36 -23 0 -18 20 9 30 13 5 35 20 50 35 28 28 36 46 11 25 -10 -9 -15
-9 -15 -1 0 6 -5 11 -11 11 -6 0 -8 -8 -4 -20 5 -15 0 -21 -19 -26 -14 -3 -30
-12 -37 -20 -17 -21 -25 -17 -27 16 -2 20 3 33 13 36 8 4 15 11 15 17 0 7 -4
7 -12 -1 -19 -19 -28 -14 -18 12 4 13 5 27 0 32 -12 13 7 54 25 54 8 0 15 5
15 10 0 13 -17 13 -25 0 -7 -12 -25 -4 -25 11 0 5 8 9 18 9 16 1 16 1 0 11
-17 9 -17 11 -1 37 17 26 17 26 0 13 -16 -12 -17 -9 -18 45 -1 33 -3 90 -5
127 -3 53 0 69 11 73 8 4 12 11 9 16 -4 6 2 8 15 3 23 -7 50 13 43 33 -2 6 3
12 12 12 9 0 16 -3 16 -6 0 -13 -24 -49 -44 -66 -12 -9 -16 -17 -11 -18 6 0
22 11 37 25 30 28 50 33 42 10 -4 -8 -1 -15 5 -15 6 0 11 5 11 10 0 6 7 10 15
10 8 0 15 5 15 10 0 6 -9 10 -20 10 -11 0 -20 5 -20 10 0 6 7 10 16 10 8 0 12
5 9 10 -3 6 -2 10 4 10 6 0 8 7 4 16 -4 10 -1 15 8 13 8 -1 26 3 40 9 15 6 35
9 45 8 11 -2 13 -1 7 1 -18 6 -16 23 2 23 8 0 15 5 15 10 0 6 4 10 9 10 5 0 7
-15 6 -32 -2 -18 -3 -39 -4 -46 -1 -7 -6 -10 -13 -6 -7 5 -8 3 -2 -7 4 -8 9
-20 11 -28 1 -7 7 -19 14 -25 9 -8 10 -7 6 7 -4 10 -1 17 6 17 9 0 9 2 1 8 -9
6 -11 44 -5 95 2 16 21 6 21 -11 0 -11 10 -27 22 -38 13 -10 18 -12 12 -4 -17
22 -26 80 -13 80 6 0 9 7 5 15 -3 8 -1 15 4 15 6 0 10 -10 10 -21 0 -18 2 -19
15 -9 12 10 13 16 4 27 -9 11 -9 17 1 26 10 10 12 9 7 -5 -4 -10 -2 -18 3 -18
6 0 10 7 10 15 0 25 1 29 13 45 9 11 5 10 -15 -2 -26 -17 -26 -17 -15 5 24 45
90 115 113 120 13 2 24 1 24 -2 0 -13 -83 -90 -91 -85 -5 3 -6 -3 -2 -12 5
-13 20 -2 74 55 69 72 100 92 79 49z m-174 -68 c-20 -22 -36 -44 -36 -49 0 -5
-6 -11 -14 -14 -9 -4 -13 2 -13 19 0 31 -10 41 -25 26 -8 -8 -8 -12 -1 -12 15
0 13 -48 -3 -61 -8 -7 -18 -9 -21 -5 -4 4 -1 11 6 15 10 7 11 13 2 30 -7 12
-17 19 -23 15 -7 -4 -6 -9 2 -14 15 -9 6 -40 -10 -40 -6 0 -9 4 -6 8 2 4 -4 8
-15 8 -14 0 -17 -5 -13 -18 7 -23 2 -23 -26 2 -24 21 -46 27 -35 11 3 -5 -4
-12 -15 -16 -11 -3 -20 -11 -20 -18 0 -8 3 -8 12 1 15 15 38 16 38 2 0 -5 -8
-10 -17 -10 -14 0 -15 -2 -4 -12 10 -11 14 -9 22 5 8 13 15 15 27 8 12 -7 22
-5 34 6 10 9 18 11 18 5 0 -17 -51 -52 -76 -52 -16 0 -22 -5 -18 -14 3 -7 -7
-21 -21 -30 -14 -9 -23 -21 -19 -27 6 -11 -13 -39 -27 -39 -5 0 -9 7 -9 15 0
8 5 15 12 15 6 0 9 3 5 6 -10 10 -65 -19 -70 -37 -2 -8 -12 -16 -21 -16 -12 0
-15 6 -11 21 5 19 5 19 -5 3 -17 -27 -30 -11 -19 26 12 41 12 42 -6 27 -12
-10 -14 -3 -11 49 1 36 -2 62 -8 64 -6 2 2 16 16 30 24 24 25 27 8 27 -11 0
-20 3 -20 8 0 9 67 9 76 -1 4 -4 -5 -16 -20 -28 -15 -12 -25 -24 -21 -27 3 -3
12 3 20 14 10 13 14 15 15 5 0 -8 8 -23 18 -34 16 -19 16 -20 -9 -15 -15 3
-35 -2 -45 -10 -18 -13 -17 -14 9 -8 21 5 28 3 25 -6 -3 -7 -13 -13 -23 -13
-10 0 -19 -8 -21 -18 -2 -16 0 -16 24 2 53 37 101 60 106 50 2 -5 3 -4 2 3 -1
7 -18 15 -36 18 -64 10 -42 71 32 90 50 14 64 5 43 -26 -8 -13 -13 -24 -10
-24 12 0 35 29 35 44 0 19 17 29 26 15 5 -8 9 -8 14 1 10 16 90 31 90 17 0 -6
6 -2 14 8 14 19 98 37 104 22 2 -4 -12 -25 -32 -47z m-866 -53 c0 -5 7 -7 15
-3 8 3 15 0 15 -5 0 -11 29 -8 63 6 12 5 17 3 17 -8 0 -17 26 -47 41 -47 6 0
9 8 7 18 -2 10 2 16 11 14 12 -3 12 0 2 12 -7 9 -8 17 -2 20 5 3 11 3 13 -1 1
-5 21 -18 43 -29 42 -23 69 -20 94 10 10 12 17 14 27 5 8 -6 14 -18 14 -25 0
-8 5 -14 10 -14 6 0 10 -6 10 -14 0 -8 7 -16 15 -20 8 -3 15 -14 15 -25 0 -25
-47 -35 -55 -12 -6 21 -132 25 -132 5 0 -7 4 -11 8 -8 4 2 10 0 14 -6 3 -5 1
-10 -5 -10 -6 0 -9 -4 -6 -9 3 -4 17 -7 31 -6 14 2 28 -1 31 -7 10 -16 -5 -22
-21 -8 -12 10 -19 10 -27 2 -9 -9 -7 -12 9 -12 11 0 26 -7 33 -15 7 -8 20 -15
29 -15 13 0 13 -2 2 -9 -9 -6 -10 -11 -2 -15 6 -4 15 -5 20 -2 5 3 14 0 20 -8
9 -10 8 -15 -4 -20 -14 -5 -13 -10 6 -36 13 -16 28 -30 35 -30 13 0 25 -35 16
-45 -9 -8 -12 -37 -5 -48 10 -16 13 -127 3 -127 -5 0 -12 9 -15 20 -3 11 -11
20 -17 20 -7 0 -6 -5 1 -14 14 -17 -3 -26 -32 -18 -21 5 -20 59 1 54 6 -1 12
2 12 8 0 14 -13 13 -34 -3 -9 -7 -16 -19 -14 -27 2 -9 -4 -14 -14 -14 -10 1
-18 -2 -18 -7 0 -5 -8 -5 -17 -2 -13 5 -9 -4 12 -29 17 -20 35 -37 42 -37 7
-1 25 -17 40 -37 15 -20 36 -45 45 -55 10 -10 15 -25 12 -34 -8 -20 -24 -19
-24 1 0 8 -4 12 -10 9 -17 -11 -5 -50 16 -50 12 0 18 -6 15 -15 -2 -8 -6 -32
-8 -52 -6 -40 -12 -45 -31 -26 -7 7 -12 8 -12 4 0 -5 8 -14 17 -21 18 -13 27
-45 13 -45 -5 0 -12 4 -15 10 -4 6 -18 1 -35 -11 -29 -22 -53 -19 -44 5 3 8 1
17 -5 21 -6 3 -11 2 -11 -4 0 -6 -7 -8 -15 -5 -11 5 -13 2 -9 -10 3 -9 10 -16
16 -16 5 0 6 -4 3 -10 -11 -18 -21 -11 -35 25 -8 19 -20 35 -27 35 -7 0 -12 3
-12 8 3 19 -2 23 -17 12 -13 -11 -16 -10 -21 8 -3 12 -10 22 -15 22 -5 0 -6 5
-2 12 5 8 11 6 20 -6 7 -10 18 -15 24 -11 7 5 2 12 -15 21 -31 16 -45 11 -45
-15 0 -13 -8 -18 -30 -19 -23 0 -30 4 -30 19 0 10 -5 19 -11 19 -8 0 -9 4 0
13 6 8 8 17 4 20 -3 4 -3 7 1 7 4 0 12 -14 18 -31 7 -21 14 -27 21 -20 6 6 3
22 -12 46 -27 47 -27 50 7 27 42 -29 60 -36 33 -12 -21 18 -23 23 -10 31 10 8
8 9 -8 4 -14 -4 -23 -2 -23 4 0 6 -6 11 -14 11 -8 0 -17 4 -20 8 -8 14 62 6
79 -8 10 -9 15 -9 15 -1 0 6 5 11 12 11 6 0 4 -7 -5 -18 -22 -24 -13 -33 24
-25 29 5 40 -9 19 -22 -8 -5 -7 -12 2 -22 7 -9 13 -23 13 -31 0 -18 32 -25 41
-10 4 6 -3 19 -16 28 -13 9 -20 22 -16 28 4 8 14 5 29 -9 45 -41 53 -46 77
-58 22 -11 23 -10 8 2 -21 17 -22 24 -5 30 6 2 4 3 -5 2 -9 -2 -25 3 -35 10
-14 10 -15 16 -5 28 10 11 9 17 -5 28 -16 13 -17 12 -4 -3 16 -21 14 -21 -28
-7 -30 11 -36 22 -33 64 2 18 0 18 -11 -3 -17 -29 -28 -18 -20 19 4 21 1 30
-11 35 -9 3 -16 13 -16 21 0 11 5 13 18 8 43 -18 52 -18 46 0 -6 15 -4 16 15
6 17 -10 22 -9 27 4 7 18 -12 45 -32 45 -7 0 -17 6 -21 14 -4 7 -23 17 -42 21
-23 5 -31 4 -27 -4 10 -15 -7 -14 -23 2 -11 10 -13 9 -9 -3 4 -13 22 -22 76
-36 7 -2 10 -9 6 -15 -3 -6 -9 -7 -13 -3 -11 16 -31 14 -31 -3 -1 -17 -2 -17
-15 1 -7 10 -19 15 -25 11 -9 -6 -9 -9 0 -15 8 -5 3 -7 -13 -7 -14 1 -23 5
-21 9 3 4 -5 18 -17 32 l-21 24 -31 -29 c-16 -16 -34 -29 -38 -29 -5 0 -9 -9
-9 -20 0 -17 -5 -19 -25 -14 -25 6 -30 -1 -26 -33 1 -7 -5 -13 -12 -13 -24 0
-33 22 -36 90 -2 36 -4 66 -5 67 0 1 -12 -5 -26 -13 -22 -13 -22 -14 -3 -9 17
5 22 2 20 -13 -1 -13 -6 -18 -16 -14 -9 3 -12 1 -8 -5 4 -6 1 -14 -5 -17 -7
-3 -3 -3 10 0 13 3 22 1 22 -6 0 -6 -10 -10 -22 -8 -19 2 -23 9 -23 43 0 22
-4 46 -8 53 -5 8 -2 23 7 37 15 22 15 25 1 25 -21 0 -19 18 5 32 22 14 26 28
9 28 -18 0 -38 26 -35 46 2 10 0 24 -4 29 -17 26 -8 53 25 71 19 10 31 22 29
26 -3 5 -17 -1 -31 -12 -33 -26 -46 -26 -31 1 10 17 10 23 1 26 -9 3 -4 16 14
41 23 31 24 34 5 18 -24 -21 -24 -21 -26 50 -1 49 0 50 26 49 16 -1 36 -9 46
-18 10 -10 24 -17 30 -17 7 0 12 -5 12 -11 0 -7 -10 -9 -25 -7 -14 3 -25 2
-25 -2 0 -11 57 -18 71 -9 7 4 8 15 3 30 -4 13 -7 27 -6 32 4 14 -17 7 -26 -9
-6 -10 -14 -14 -22 -9 -9 6 -9 9 1 16 10 6 11 9 2 9 -7 0 -13 5 -13 10 0 6 11
8 25 6 13 -3 27 0 30 5 8 11 105 7 105 -4z m-525 -87 c-3 -5 -1 -10 4 -10 6 0
11 -9 11 -20 0 -11 7 -20 15 -20 17 0 20 -36 5 -74 -13 -35 -24 -33 -39 9 -8
22 -17 33 -24 28 -8 -5 -8 -8 1 -11 22 -7 13 -32 -15 -43 -45 -18 -61 -18 -73
-4 -9 11 -5 17 19 30 17 8 31 18 31 21 0 2 -8 0 -19 -5 -15 -8 -20 -6 -29 14
-9 20 -8 31 6 54 14 25 24 31 62 34 25 2 46 4 48 5 2 1 0 -2 -3 -8z m-1795
-38 c0 -10 7 -27 15 -38 16 -22 20 -58 5 -49 -5 3 -10 1 -10 -4 0 -11 26 -16
63 -13 9 1 17 -3 17 -8 0 -6 -11 -10 -24 -10 -29 0 -44 -39 -21 -56 14 -10 14
-12 1 -17 -9 -4 -18 -2 -21 4 -4 5 -11 7 -16 4 -5 -4 -19 1 -31 9 -28 20 -42
20 -35 2 4 -10 0 -12 -14 -9 -27 7 -34 23 -10 23 27 0 70 47 64 70 -9 33 -82
-2 -84 -39 -1 -21 -3 -22 -6 -5 -6 29 13 73 34 80 49 16 62 27 53 44 -9 17 -4
30 12 30 4 0 8 -8 8 -18z m3394 -27 c-4 -8 -10 -15 -15 -15 -5 0 -9 -5 -9 -11
0 -5 5 -7 10 -4 9 6 14 -8 11 -27 -3 -20 11 -5 20 22 6 17 18 30 27 30 10 0
13 -3 7 -8 -6 -4 -18 -19 -28 -34 -10 -16 -24 -28 -31 -28 -8 0 -21 -12 -31
-26 -16 -24 -16 -28 -1 -42 13 -14 16 -14 16 -2 0 8 8 24 17 35 12 15 14 16
10 3 -6 -18 18 -33 28 -18 4 6 1 10 -6 10 -7 0 -10 2 -7 5 3 3 12 3 21 -1 15
-5 15 -8 -1 -29 -16 -22 -39 -25 -26 -3 4 6 -1 6 -14 -1 -12 -6 -24 -16 -27
-21 -3 -6 -13 -10 -21 -10 -28 0 -46 -28 -39 -60 5 -23 2 -32 -14 -42 -22 -14
-30 -34 -8 -23 6 4 1 -3 -13 -15 -24 -21 -24 -21 -2 -15 13 4 22 2 22 -4 0 -6
-6 -11 -14 -11 -8 0 -16 -4 -18 -9 -1 -4 -14 -12 -28 -16 -22 -7 -23 -6 -11 8
7 9 18 14 25 10 6 -4 5 1 -2 10 -8 9 -11 21 -7 27 3 5 1 10 -5 10 -6 0 -15
-11 -20 -24 -10 -28 -76 -42 -85 -18 -2 7 0 10 5 7 6 -4 18 1 27 10 13 13 18
14 24 3 6 -9 9 -5 9 13 0 22 4 26 24 24 14 -2 29 -6 35 -9 10 -7 17 9 26 63 3
19 8 38 11 42 2 4 -6 15 -18 24 l-23 17 24 -7 c18 -5 22 -4 16 6 -6 9 -4 11 8
6 17 -6 31 17 28 45 -1 9 2 19 8 22 5 4 8 19 6 35 -3 24 1 30 21 35 13 4 24
11 24 16 0 6 4 10 10 10 5 0 7 -7 4 -15z m-1594 -89 c6 -8 18 -12 26 -9 15 5
19 -8 7 -21 -5 -4 -8 -13 -8 -19 0 -7 -9 -11 -20 -10 -18 1 -18 0 -4 -10 9 -7
19 -23 22 -37 4 -14 4 -19 1 -12 -3 6 -12 12 -20 12 -9 0 -13 -4 -9 -9 3 -5
-2 -16 -10 -24 -21 -21 -19 -24 15 -30 25 -5 30 -11 30 -35 0 -25 -4 -29 -31
-29 -22 0 -34 7 -41 23 -6 12 -16 20 -23 18 -15 -6 -28 23 -14 32 5 3 16 3 23
1 8 -3 16 2 19 13 3 14 1 17 -11 13 -10 -4 -13 -2 -8 5 4 7 2 12 -4 12 -7 0
-10 6 -7 14 3 8 -1 13 -11 12 -11 -1 -17 8 -18 27 -2 18 2 27 11 27 8 0 12 6
9 14 -3 9 5 18 23 24 38 14 39 14 53 -2z m-523 -344 c12 -7 26 -11 30 -10 31
7 86 -53 62 -68 -5 -3 -9 -1 -9 4 0 6 -9 8 -21 5 -14 -4 -17 -8 -9 -13 9 -6 9
-9 1 -14 -8 -5 -4 -14 11 -26 l23 -19 -26 -1 c-39 0 -43 -13 -7 -24 37 -13 49
-34 16 -31 -13 1 -25 4 -28 5 -3 1 -14 3 -25 4 -13 1 -24 12 -30 34 -10 29
-13 31 -30 18 -22 -16 -55 -10 -55 10 0 17 5 17 32 3 17 -9 20 -9 15 3 -3 9 6
21 24 32 16 9 29 22 29 27 0 6 -4 7 -10 4 -6 -3 -7 1 -4 9 3 9 1 16 -5 16 -6
0 -8 7 -5 15 4 10 0 15 -16 15 -11 0 -19 4 -16 9 7 11 24 9 53 -7z m243 -170
c0 -10 -6 -24 -12 -32 -11 -12 -10 -12 3 -2 14 10 18 9 23 -5 4 -10 1 -22 -7
-28 -15 -11 -34 -75 -22 -75 14 0 31 26 28 40 -4 13 -3 13 6 0 6 -8 27 -14 54
-15 31 0 43 -4 40 -12 -3 -7 2 -13 11 -13 10 0 13 6 10 15 -4 8 -2 15 2 16 5
0 21 2 37 4 15 2 27 0 27 -5 0 -4 10 -10 21 -13 15 -4 20 -11 15 -23 -5 -14
-4 -15 9 -4 20 16 19 30 -1 30 -11 0 -15 6 -11 20 3 13 0 20 -9 20 -8 0 -14 2
-14 4 0 2 -3 12 -6 21 -12 31 34 -6 47 -38 7 -17 17 -26 25 -23 8 3 14 1 14
-4 0 -6 -5 -10 -11 -10 -6 0 -9 -9 -6 -20 3 -11 1 -18 -4 -14 -5 3 -9 0 -9 -5
0 -6 4 -11 8 -11 5 0 14 -12 21 -27 10 -21 9 -28 -1 -34 -9 -6 -8 -10 5 -15
27 -10 20 -21 -18 -28 -40 -8 -119 -51 -121 -66 -1 -5 -2 -14 -3 -20 0 -5 -6
-10 -12 -10 -6 0 -9 7 -5 15 4 12 2 13 -12 6 -19 -9 -78 -8 -89 2 -3 4 9 13
28 21 19 9 27 15 18 16 -20 0 -89 -28 -89 -36 0 -3 8 -3 18 0 9 3 4 -5 -13
-19 -45 -37 -65 -33 -65 13 0 46 6 55 31 41 12 -6 19 -6 19 0 0 5 -6 12 -12
14 -8 4 -5 8 7 12 21 6 33 45 14 45 -5 0 -9 -4 -9 -10 0 -5 -4 -10 -9 -10 -13
0 -8 33 7 45 9 7 5 10 -14 12 -38 2 -45 20 -22 59 11 19 15 34 10 34 -6 0 -12
-6 -15 -12 -7 -22 -19 -1 -12 21 3 12 14 21 23 21 15 1 15 2 -1 11 -14 8 -16
14 -6 25 9 11 9 14 -1 14 -7 0 -10 8 -7 20 3 11 1 20 -4 20 -5 0 -9 -7 -9 -16
0 -14 -3 -14 -16 -3 -13 11 -12 14 13 25 44 19 83 17 83 -4z m-403 -182 c3
-11 9 -20 14 -20 5 0 6 -7 3 -15 -4 -9 0 -15 10 -15 9 0 16 -4 16 -10 0 -5 7
-7 15 -4 13 5 13 9 3 22 -11 13 -10 15 4 10 9 -4 18 -1 21 6 10 24 47 25 73 3
22 -19 24 -26 15 -50 -6 -15 -15 -27 -21 -27 -14 0 -13 17 3 23 8 4 7 6 -3 6
-8 1 -21 -8 -27 -18 -11 -17 -10 -21 6 -26 10 -3 26 -3 35 1 9 3 16 1 16 -6 0
-6 -4 -9 -9 -5 -5 3 -13 1 -16 -5 -4 -6 -15 -8 -26 -5 -11 4 -19 2 -19 -4 0
-6 -9 -11 -21 -11 -14 0 -19 5 -16 14 4 9 -3 16 -16 20 -21 6 -21 7 -4 20 16
13 15 14 -10 19 -16 3 -30 1 -32 -5 -2 -6 -12 -17 -22 -26 -12 -10 -15 -20 -9
-27 6 -7 2 -11 -11 -12 -11 -1 -17 3 -13 9 4 6 0 14 -7 19 -11 7 -10 9 5 9 11
0 17 3 13 6 -3 3 3 15 13 27 19 20 19 20 -1 48 -20 28 -19 49 3 49 5 0 12 -9
15 -20z m1963 -230 c0 -5 -5 -10 -11 -10 -8 0 -8 -5 1 -15 10 -12 10 -18 0
-30 -9 -11 -9 -15 -1 -15 17 0 34 -50 21 -65 -7 -9 -3 -17 14 -30 14 -11 22
-23 20 -27 -3 -5 -11 -5 -18 1 -13 11 -13 11 -19 -71 -2 -27 0 -48 5 -48 6 0
7 -7 4 -16 -4 -9 0 -25 9 -34 15 -17 11 -50 -6 -50 -5 0 -9 -7 -9 -15 0 -24
18 -17 42 15 13 18 37 34 60 40 35 10 37 12 27 37 -16 44 0 39 20 -7 22 -49
18 -83 -5 -53 -13 17 -16 16 -39 -12 -20 -25 -22 -31 -9 -38 8 -4 12 -12 9
-18 -4 -5 -1 -9 5 -9 6 0 8 -5 4 -11 -3 -6 -15 -8 -26 -6 -11 3 -21 0 -25 -8
-2 -8 -13 -17 -23 -20 -15 -5 -17 -11 -10 -34 4 -16 14 -39 21 -52 18 -33 18
-57 2 -71 -20 -16 -78 39 -62 59 7 8 8 13 1 13 -5 0 -13 17 -17 38 -4 20 -12
43 -17 50 -13 16 -9 20 24 24 28 4 58 25 58 40 0 6 -10 4 -22 -4 -25 -16 -77
-29 -76 -19 3 28 -3 42 -14 33 -17 -13 -64 -8 -60 7 1 6 -7 11 -18 11 -11 0
-20 5 -20 10 0 6 5 10 11 10 8 0 8 5 -1 15 -15 18 1 20 19 3 11 -10 13 -10 7
0 -9 15 4 15 38 2 20 -7 26 -6 26 4 0 7 14 16 30 20 17 3 30 11 30 17 0 6 -7
9 -15 5 -8 -3 -15 -1 -15 5 0 6 -7 8 -17 5 -9 -4 -20 -1 -24 6 -6 10 -11 10
-19 2 -16 -16 -50 -5 -50 16 0 21 22 41 75 69 22 12 35 21 30 21 -6 0 4 11 20
24 l30 25 -25 9 c-35 13 -59 3 -30 -13 15 -8 19 -15 11 -19 -6 -4 -16 -4 -23
0 -6 4 -8 3 -5 -3 7 -11 -105 -103 -125 -103 -6 0 -3 7 8 15 18 14 18 14 -7
15 -15 0 -32 7 -39 15 -10 12 -10 15 3 15 16 0 30 24 31 55 1 14 7 19 20 17
17 -3 18 -1 7 11 -8 10 -9 17 -2 22 6 3 16 16 22 28 12 21 11 21 -8 4 -11 -9
-23 -14 -27 -10 -4 5 -6 1 -5 -7 2 -8 -5 -27 -15 -42 -16 -24 -20 -26 -32 -13
-13 13 -13 18 1 46 9 17 19 28 22 25 4 -3 17 1 31 10 13 9 32 14 43 11 10 -3
17 -1 16 4 -2 11 83 77 101 78 6 1 12 -3 12 -9z m426 -54 c-1 -23 1 -46 5 -52
9 -11 -24 -54 -40 -54 -5 0 -7 -8 -4 -19 3 -11 -2 -21 -11 -24 -13 -5 -15 -1
-10 21 4 21 3 24 -5 12 -16 -22 -13 -50 5 -57 10 -4 22 1 29 11 14 19 65 36
109 36 16 0 38 8 49 18 19 17 20 17 4 -13 -9 -16 -23 -38 -30 -47 -14 -18 -37
-24 -37 -10 0 4 -9 13 -20 19 -15 10 -22 10 -33 -1 -7 -7 -27 -17 -44 -20 -17
-4 -41 -16 -54 -27 -13 -11 -30 -17 -41 -13 -13 4 -16 1 -12 -10 3 -9 12 -12
21 -9 11 4 14 2 9 -6 -5 -7 -16 -9 -28 -5 -17 5 -20 3 -15 -10 7 -18 -4 -21
-20 -5 -15 15 -53 2 -46 -17 3 -8 -1 -14 -8 -14 -18 0 -65 73 -51 78 5 1 8 13
5 25 -4 20 -3 20 7 5 17 -27 27 -22 34 17 5 23 13 35 23 35 15 0 15 -2 0 -18
-18 -20 -23 -47 -7 -37 6 3 10 1 10 -6 0 -7 3 -9 7 -6 3 4 12 -1 19 -11 12
-15 15 -15 23 -2 8 12 4 17 -19 23 -36 9 -37 17 -9 43 21 19 22 19 15 -2 -5
-15 -2 -24 10 -28 13 -5 15 -2 11 14 -3 12 2 27 11 37 15 15 15 16 -10 11 -25
-5 -25 -3 -16 24 5 15 14 25 19 22 6 -4 6 -11 -1 -19 -8 -9 -5 -11 15 -7 14 2
22 9 18 15 -3 5 9 22 26 38 18 15 32 30 32 33 -3 22 1 27 15 22 8 -3 12 -2 9
4 -3 6 -1 10 4 10 6 0 11 5 11 11 0 5 -4 8 -9 5 -5 -3 -11 1 -14 9 -5 12 -2
12 18 3 21 -9 24 -17 21 -52z m-1739 13 c-3 -11 -1 -19 4 -19 5 0 9 -4 9 -9 0
-13 -51 0 -57 15 -3 8 -10 14 -16 14 -6 0 -1 -10 11 -22 15 -17 18 -27 11 -40
-13 -24 -36 -23 -51 2 -15 24 -24 25 -32 4 -3 -8 -2 -12 4 -9 6 3 10 1 10 -5
0 -7 -9 -14 -20 -17 -11 -3 -20 -11 -20 -18 0 -23 -44 -27 -62 -4 -19 22 -14
51 7 43 7 -3 16 -1 20 5 4 7 -4 11 -19 11 -19 0 -24 5 -23 20 1 11 6 19 12 18
5 -1 20 3 33 10 32 18 82 23 82 9 0 -9 2 -9 8 -1 8 14 48 22 75 15 12 -2 17
-10 14 -22z m1377 -760 c-5 -8 1 -10 20 -7 22 5 26 3 20 -11 -4 -9 -8 -27 -8
-41 -2 -46 -36 -72 -36 -27 -1 20 -2 20 -11 5 -5 -10 -16 -18 -23 -18 -8 0
-16 -7 -20 -15 -6 -17 19 -21 29 -4 5 7 14 4 26 -7 10 -9 19 -13 19 -9 0 5 5
4 11 -2 8 -8 6 -19 -6 -39 -9 -16 -14 -21 -11 -11 3 9 1 17 -3 17 -13 0 -23
-30 -27 -77 -3 -48 17 -61 50 -34 18 15 18 15 6 -9 -22 -43 -45 -51 -53 -19
-3 12 -10 18 -16 15 -6 -4 -8 -13 -4 -21 3 -8 0 -15 -7 -15 -8 0 -10 8 -6 23
3 12 9 41 13 65 3 23 10 45 14 48 14 8 10 34 -5 34 -8 0 -16 3 -18 8 -6 14
-68 53 -68 42 0 -5 -9 -10 -20 -10 -11 0 -20 7 -20 15 0 8 -5 15 -11 15 -5 0
-7 5 -4 10 3 6 28 10 55 10 40 0 48 3 44 15 -7 18 26 21 42 5 8 -8 15 -6 24 5
10 12 10 15 -4 15 -19 0 -22 26 -3 33 18 8 19 8 11 -4z m295 -25 c-12 -15 -11
-16 6 -11 11 3 35 9 53 12 31 6 33 5 30 -16 -4 -27 -68 -68 -68 -44 0 8 -4 15
-8 15 -11 0 -32 -22 -32 -32 0 -10 74 -3 93 8 6 4 -4 -11 -23 -33 -19 -23 -43
-42 -54 -42 -12 -1 -16 -6 -13 -16 9 -21 -2 -24 -48 -14 l-40 8 36 -2 c36 -3
36 -3 33 36 -2 21 -8 46 -14 55 -8 13 -10 14 -9 2 3 -21 -11 -50 -23 -50 -6 0
-6 6 1 14 9 11 10 20 1 36 -14 27 2 50 36 50 14 0 25 8 29 20 3 11 11 20 17
20 6 0 5 -7 -3 -16z"/>
<path d="M4163 3385 c0 -15 5 -25 13 -25 8 0 14 -5 14 -10 0 -15 -31 -25 -39
-13 -10 15 -50 22 -54 10 -4 -14 16 -37 32 -37 6 0 11 -7 11 -15 0 -9 9 -15
25 -15 13 0 28 -6 32 -14 10 -18 63 -32 63 -17 0 6 9 11 21 11 11 0 18 -4 15
-9 -3 -5 2 -15 12 -22 15 -13 16 -12 3 4 -12 15 -11 17 3 17 9 0 16 -5 16 -11
0 -5 5 -7 11 -3 8 5 8 9 -1 14 -9 5 -9 9 -1 14 6 4 15 5 19 2 4 -2 8 7 7 22 0
15 -4 27 -10 27 -5 0 -16 4 -22 8 -7 5 -18 5 -24 1 -6 -3 -15 -1 -19 6 -6 9
-10 6 -15 -9 -4 -13 -1 -28 5 -36 21 -25 -5 -17 -29 9 -13 14 -29 22 -36 19
-10 -3 -12 2 -8 18 4 13 8 18 11 11 2 -6 10 -12 18 -12 8 0 14 -5 14 -11 0 -5
4 -7 10 -4 6 4 2 15 -10 27 -11 12 -20 26 -20 32 0 5 -3 6 -6 3 -4 -4 -19 2
-34 13 l-27 20 0 -25z"/>
<path d="M4005 3211 c-11 -4 -20 -17 -20 -27 0 -13 -6 -18 -20 -17 l-20 3 20
-9 c11 -5 28 -12 38 -15 15 -5 16 -9 5 -26 -7 -11 -18 -20 -25 -20 -7 0 -13
-7 -13 -15 0 -8 -15 -19 -32 -24 -30 -8 -28 -9 17 -6 28 1 67 10 89 19 34 14
42 14 67 2 16 -8 29 -10 29 -5 0 6 4 7 10 4 5 -3 8 0 5 7 -3 7 3 18 13 25 15
9 24 8 43 -2 13 -8 31 -17 39 -21 8 -3 28 -12 45 -19 16 -8 31 -12 34 -10 8 9
-22 35 -40 35 -20 0 -26 15 -10 25 6 3 21 -7 35 -22 14 -15 29 -24 33 -19 4 4
-1 14 -11 22 -11 7 -17 17 -13 20 7 8 -17 34 -32 34 -6 0 -11 4 -11 9 0 4 -10
6 -22 4 -14 -3 -37 6 -57 21 -45 34 -61 33 -27 -1 14 -14 24 -28 22 -30 -7 -7
-76 26 -76 36 0 6 -4 11 -9 11 -5 0 -8 -8 -6 -17 2 -10 4 -22 4 -26 1 -5 6 -5
12 -1 19 12 29 -19 11 -33 -13 -9 -14 -12 -3 -13 8 0 11 -3 8 -6 -11 -11 -36
16 -30 32 3 8 0 14 -7 14 -6 0 -8 5 -5 10 3 6 0 11 -7 11 -7 1 -20 3 -28 4 -8
1 -20 3 -27 4 -6 0 -9 10 -6 21 3 11 4 20 2 19 -2 0 -13 -4 -24 -8z"/>
<path d="M4181 3943 c-10 -21 -9 -24 3 -20 7 3 24 -5 36 -18 16 -17 18 -24 8
-27 -7 -3 -18 2 -25 11 -10 14 -11 14 -10 -4 2 -16 -4 -20 -25 -20 -16 1 -28
0 -28 -1 0 -2 4 -14 10 -28 6 -17 6 -27 -2 -32 -7 -4 -8 -3 -4 4 10 16 -17 15
-32 0 -16 -16 -16 4 1 22 9 11 8 11 -8 0 -11 -8 -23 -19 -27 -25 -9 -12 18
-29 32 -20 6 3 20 -1 32 -9 12 -9 30 -16 40 -16 10 0 25 -11 34 -25 12 -19 22
-23 40 -19 14 4 24 2 24 -4 0 -6 9 -10 19 -9 11 0 18 4 15 8 -2 4 2 10 8 12 8
3 5 6 -5 6 -11 1 -30 10 -43 20 -22 17 -23 21 -9 34 17 17 20 31 5 22 -5 -3
-10 -1 -10 4 0 18 32 12 36 -7 5 -16 61 -62 77 -62 3 0 -2 13 -11 30 -9 16
-20 30 -24 30 -10 0 -38 30 -38 42 0 5 7 8 15 4 32 -12 13 6 -20 20 -20 8 -33
19 -30 24 3 6 -4 10 -15 10 -16 0 -20 5 -16 15 3 8 2 14 -2 14 -22 -4 -33 3
-29 16 11 26 -10 25 -22 -2z"/>
</g>
</svg>
